<svg viewBox="0 0 400 300" xmlns="http://www.w3.org/2000/svg">
  <defs>
    <radialGradient id="absorptionGradient" cx="50%" cy="50%" r="70%">
      <stop offset="0%" stop-color="#ba68c8" stop-opacity="0.8"/>
      <stop offset="30%" stop-color="#c683d2" stop-opacity="0.7"/>
      <stop offset="60%" stop-color="#d29edc" stop-opacity="0.5"/>
      <stop offset="85%" stop-color="#deb9e6" stop-opacity="0.3"/>
      <stop offset="100%" stop-color="#ead4f0" stop-opacity="0.1"/>
    </radialGradient>
    
    <radialGradient id="nitrogenCore" cx="50%" cy="50%" r="50%">
      <stop offset="0%" stop-color="#9c27b0" stop-opacity="0.9"/>
      <stop offset="40%" stop-color="#ba68c8" stop-opacity="0.7"/>
      <stop offset="100%" stop-color="#c683d2" stop-opacity="0.4"/>
    </radialGradient>
    
    <linearGradient id="absorptionLines" x1="0%" y1="0%" x2="100%" y2="100%">
      <stop offset="0%" stop-color="#9c27b0" stop-opacity="0.8"/>
      <stop offset="50%" stop-color="#ba68c8" stop-opacity="0.6"/>
      <stop offset="100%" stop-color="#c683d2" stop-opacity="0.4"/>
    </linearGradient>
    
    <filter id="absorptionGlow">
      <feGaussianBlur stdDeviation="2" result="coloredBlur"/>
      <feMerge>
        <feMergeNode in="coloredBlur"/>
        <feMergeNode in="SourceGraphic"/>
      </feMerge>
    </filter>
    
    <filter id="selectiveAbsorption">
      <feGaussianBlur stdDeviation="1.5" result="coloredBlur"/>
      <feMerge>
        <feMergeNode in="coloredBlur"/>
        <feMergeNode in="SourceGraphic"/>
      </feMerge>
    </filter>
    
    <circle id="nitrogenMolecule" r="0.9" fill="#9c27b0" opacity="0.8"/>
    <circle id="carbonMolecule" r="0.7" fill="#ba68c8" opacity="0.6"/>
  </defs>
  
  <!-- Main absorption nebula -->
  <ellipse cx="200" cy="150" rx="170" ry="110" fill="url(#absorptionGradient)" filter="url(#absorptionGlow)"/>
  
  <!-- Nitrogen-rich dense cores -->
  <ellipse cx="180" cy="130" rx="35" ry="25" fill="url(#nitrogenCore)" filter="url(#selectiveAbsorption)"/>
  <ellipse cx="220" cy="170" rx="40" ry="28" fill="url(#nitrogenCore)" filter="url(#selectiveAbsorption)"/>
  <ellipse cx="200" cy="150" rx="25" ry="18" fill="url(#nitrogenCore)" filter="url(#selectiveAbsorption)"/>
  
  <!-- Selective absorption bands -->
  <g opacity="0.7">
    <path d="M 80 110 Q 140 120 200 110 Q 260 100 320 110" 
          stroke="url(#absorptionLines)" stroke-width="3" fill="none"/>
    <path d="M 70 140 Q 130 130 190 140 Q 250 150 310 140" 
          stroke="url(#absorptionLines)" stroke-width="2.5" fill="none"/>
    <path d="M 90 170 Q 145 180 200 170 Q 255 160 310 170" 
          stroke="url(#absorptionLines)" stroke-width="2.8" fill="none"/>
    <path d="M 80 200 Q 140 190 200 200 Q 260 210 320 200" 
          stroke="url(#absorptionLines)" stroke-width="2.3" fill="none"/>
  </g>
  
  <!-- Molecular absorption regions -->
  <g opacity="0.6">
    <ellipse cx="160" cy="120" rx="18" ry="12" fill="#9c27b0" opacity="0.5"/>
    <ellipse cx="240" cy="180" rx="20" ry="14" fill="#9c27b0" opacity="0.6"/>
    <ellipse cx="180" cy="180" rx="15" ry="10" fill="#9c27b0" opacity="0.4"/>
    <ellipse cx="220" cy="120" rx="17" ry="11" fill="#9c27b0" opacity="0.5"/>
  </g>
  
  <!-- Nitrogen and carbon molecules -->
  <g opacity="0.8">
    <use href="#nitrogenMolecule" x="175" y="125"/>
    <use href="#nitrogenMolecule" x="185" y="135"/>
    <use href="#carbonMolecule" x="180" y="130"/>
    <use href="#nitrogenMolecule" x="215" y="165"/>
    <use href="#carbonMolecule" x="225" y="175"/>
    <use href="#nitrogenMolecule" x="220" y="170"/>
    <use href="#carbonMolecule" x="195" y="145"/>
    <use href="#nitrogenMolecule" x="205" y="155"/>
  </g>
  
  <!-- Absorption line features -->
  <g opacity="0.5">
    <rect x="120" y="108" width="160" height="4" fill="#9c27b0"/>
    <rect x="110" y="138" width="180" height="4" fill="#9c27b0"/>
    <rect x="130" y="168" width="140" height="4" fill="#9c27b0"/>
    <rect x="120" y="198" width="160" height="4" fill="#9c27b0"/>
  </g>
  
  <!-- Spectral absorption signatures -->
  <g opacity="0.4">
    <circle cx="140" cy="110" r="2" fill="#673ab7"/>
    <circle cx="180" cy="140" r="2" fill="#673ab7"/>
    <circle cx="220" cy="170" r="2" fill="#673ab7"/>
    <circle cx="260" cy="200" r="2" fill="#673ab7"/>
    <circle cx="160" cy="200" r="2" fill="#673ab7"/>
    <circle cx="240" cy="140" r="2" fill="#673ab7"/>
  </g>
  
  <!-- Background stars being absorbed -->
  <g opacity="0.2">
    <circle cx="100" cy="80" r="1" fill="#ffffff"/>
    <circle cx="300" cy="220" r="1" fill="#ffffff"/>
    <circle cx="80" cy="220" r="1" fill="#ffffff"/>
    <circle cx="320" cy="80" r="1" fill="#ffffff"/>
    <circle cx="150" cy="90" r="1" fill="#ffffff"/>
    <circle cx="250" cy="210" r="1" fill="#ffffff"/>
  </g>
  
  <!-- Wavelength-selective filtering -->
  <g opacity="0.6">
    <path d="M 120 130 Q 160 140 200 130 Q 240 120 280 130" 
          stroke="#ba68c8" stroke-width="1.2" fill="none"/>
    <path d="M 130 160 Q 165 150 200 160 Q 235 170 270 160" 
          stroke="#ba68c8" stroke-width="1.1" fill="none"/>
    <path d="M 140 190 Q 170 180 200 190 Q 230 200 260 190" 
          stroke="#ba68c8" stroke-width="1.3" fill="none"/>
  </g>
  
  <!-- Iron and heavy element traces -->
  <g opacity="0.7">
    <ellipse cx="170" cy="140" rx="8" ry="5" fill="#c683d2" opacity="0.4"/>
    <ellipse cx="230" cy="160" rx="10" ry="6" fill="#c683d2" opacity="0.5"/>
    <ellipse cx="190" cy="180" rx="7" ry="4" fill="#c683d2" opacity="0.3"/>
    <ellipse cx="210" cy="120" rx="9" ry="5" fill="#c683d2" opacity="0.45"/>
  </g>
  
  <!-- Enhanced Star Echo threshold indicators -->
  <g opacity="0.8">
    <circle cx="200" cy="150" r="4" fill="#9c27b0" opacity="0.7"/>
    <circle cx="180" cy="130" r="3" fill="#9c27b0" opacity="0.6"/>
    <circle cx="220" cy="170" r="3" fill="#9c27b0" opacity="0.6"/>
  </g>
  
  <!-- Molecular cloud structure -->
  <path d="M 40 150 Q 80 140 120 150 Q 160 160 200 150 Q 240 140 280 150 Q 320 160 360 150" 
        stroke="#ba68c8" stroke-width="1" fill="none" opacity="0.3"/>
  <path d="M 50 120 Q 90 110 130 120 Q 170 130 210 120 Q 250 110 290 120" 
        stroke="#ba68c8" stroke-width="0.8" fill="none" opacity="0.25"/>
  <path d="M 50 180 Q 90 190 130 180 Q 170 170 210 180 Q 250 190 290 180" 
        stroke="#ba68c8" stroke-width="0.9" fill="none" opacity="0.28"/>
</svg>