<svg viewBox="0 0 400 300" xmlns="http://www.w3.org/2000/svg">
  <defs>
    <radialGradient id="darkNebulaGradient" cx="50%" cy="50%" r="70%">
      <stop offset="0%" stop-color="#1a0b42" stop-opacity="0.95"/>
      <stop offset="30%" stop-color="#2d1b69" stop-opacity="0.9"/>
      <stop offset="60%" stop-color="#4a2c85" stop-opacity="0.7"/>
      <stop offset="85%" stop-color="#673da1" stop-opacity="0.4"/>
      <stop offset="100%" stop-color="#844ebd" stop-opacity="0.1"/>
    </radialGradient>
    
    <radialGradient id="carbonCore" cx="50%" cy="50%" r="40%">
      <stop offset="0%" stop-color="#2d1b69" stop-opacity="0.8"/>
      <stop offset="50%" stop-color="#4a2c85" stop-opacity="0.6"/>
      <stop offset="100%" stop-color="#673da1" stop-opacity="0.3"/>
    </radialGradient>
    
    <linearGradient id="dustLane" x1="0%" y1="0%" x2="100%" y2="100%">
      <stop offset="0%" stop-color="#1a0b42" stop-opacity="0.9"/>
      <stop offset="50%" stop-color="#2d1b69" stop-opacity="0.7"/>
      <stop offset="100%" stop-color="#4a2c85" stop-opacity="0.5"/>
    </linearGradient>
    
    <filter id="darkGlow">
      <feGaussianBlur stdDeviation="2" result="coloredBlur"/>
      <feMerge>
        <feMergeNode in="coloredBlur"/>
        <feMergeNode in="SourceGraphic"/>
      </feMerge>
    </filter>
    
    <circle id="carbonGrain" r="0.8" fill="#4a2c85" opacity="0.8"/>
    <circle id="silicateGrain" r="0.6" fill="#673da1" opacity="0.6"/>
  </defs>
  
  <!-- Background stars being obscured -->
  <g opacity="0.1">
    <circle cx="50" cy="50" r="1" fill="#ffffff"/>
    <circle cx="350" cy="80" r="1" fill="#ffffff"/>
    <circle cx="80" cy="250" r="1" fill="#ffffff"/>
    <circle cx="320" cy="220" r="1" fill="#ffffff"/>
    <circle cx="30" cy="150" r="1" fill="#ffffff"/>
    <circle cx="370" cy="180" r="1" fill="#ffffff"/>
  </g>
  
  <!-- Main dark nebula mass -->
  <ellipse cx="200" cy="150" rx="170" ry="110" fill="url(#darkNebulaGradient)" filter="url(#darkGlow)"/>
  
  <!-- Dense carbon-rich cores -->
  <ellipse cx="180" cy="130" rx="35" ry="25" fill="url(#carbonCore)" opacity="0.8"/>
  <ellipse cx="220" cy="170" rx="40" ry="30" fill="url(#carbonCore)" opacity="0.7"/>
  <ellipse cx="200" cy="150" rx="25" ry="20" fill="url(#carbonCore)" opacity="0.9"/>
  
  <!-- Dust lane structure -->
  <path d="M 80 120 Q 140 100 200 120 Q 260 140 320 120" 
        stroke="url(#dustLane)" stroke-width="8" fill="none" opacity="0.8"/>
  <path d="M 70 180 Q 130 200 190 180 Q 250 160 310 180" 
        stroke="url(#dustLane)" stroke-width="6" fill="none" opacity="0.7"/>
  <path d="M 100 90 Q 150 110 200 90 Q 250 70 300 90" 
        stroke="url(#dustLane)" stroke-width="5" fill="none" opacity="0.6"/>
  <path d="M 90 210 Q 140 190 190 210 Q 240 230 290 210" 
        stroke="url(#dustLane)" stroke-width="7" fill="none" opacity="0.75"/>
  
  <!-- Molecular cloud structure -->
  <g opacity="0.6">
    <ellipse cx="160" cy="120" rx="15" ry="10" fill="#2d1b69" opacity="0.5"/>
    <ellipse cx="240" cy="180" rx="18" ry="12" fill="#2d1b69" opacity="0.6"/>
    <ellipse cx="180" cy="180" rx="12" ry="8" fill="#2d1b69" opacity="0.4"/>
    <ellipse cx="220" cy="120" rx="16" ry="11" fill="#2d1b69" opacity="0.5"/>
  </g>
  
  <!-- Carbon and silicon dust grains -->
  <g opacity="0.7">
    <use href="#carbonGrain" x="175" y="125"/>
    <use href="#carbonGrain" x="185" y="135"/>
    <use href="#silicateGrain" x="180" y="130"/>
    <use href="#carbonGrain" x="215" y="165"/>
    <use href="#silicateGrain" x="225" y="175"/>
    <use href="#carbonGrain" x="220" y="170"/>
    <use href="#silicateGrain" x="195" y="145"/>
    <use href="#carbonGrain" x="205" y="155"/>
    <use href="#silicateGrain" x="160" y="115"/>
    <use href="#carbonGrain" x="240" y="185"/>
  </g>
  
  <!-- Blocked starlight creating dark silhouette -->
  <g opacity="0.3">
    <ellipse cx="140" cy="100" rx="8" ry="5" fill="#1a0b42"/>
    <ellipse cx="260" cy="200" rx="10" ry="6" fill="#1a0b42"/>
    <ellipse cx="180" cy="200" rx="7" ry="4" fill="#1a0b42"/>
    <ellipse cx="220" cy="100" rx="9" ry="5" fill="#1a0b42"/>
  </g>
  
  <!-- Molecular hydrogen regions -->
  <path d="M 120 140 Q 160 120 200 140 Q 240 160 280 140" 
        stroke="#4a2c85" stroke-width="1" fill="none" opacity="0.4"/>
  <path d="M 130 170 Q 165 150 200 170 Q 235 190 270 170" 
        stroke="#4a2c85" stroke-width="1" fill="none" opacity="0.3"/>
  <path d="M 150 110 Q 175 130 200 110 Q 225 90 250 110" 
        stroke="#4a2c85" stroke-width="1" fill="none" opacity="0.35"/>
  
  <!-- Dense core regions where star formation is suppressed -->
  <g opacity="0.8">
    <ellipse cx="200" cy="150" rx="8" ry="6" fill="#1a0b42"/>
    <ellipse cx="180" cy="130" rx="6" ry="4" fill="#1a0b42"/>
    <ellipse cx="220" cy="170" rx="7" ry="5" fill="#1a0b42"/>
  </g>
  
  <!-- Infrared sources (hidden behind dust) -->
  <g opacity="0.2">
    <circle cx="190" cy="140" r="2" fill="#673da1"/>
    <circle cx="210" cy="160" r="2" fill="#673da1"/>
    <circle cx="200" cy="150" r="1.5" fill="#844ebd"/>
  </g>
</svg>