<svg viewBox="0 0 400 300" xmlns="http://www.w3.org/2000/svg">
  <defs>
    <radialGradient id="reflectionGradient" cx="50%" cy="50%" r="70%">
      <stop offset="0%" stop-color="#45b7d1" stop-opacity="0.8"/>
      <stop offset="30%" stop-color="#6ac5db" stop-opacity="0.7"/>
      <stop offset="60%" stop-color="#8fd3e5" stop-opacity="0.5"/>
      <stop offset="85%" stop-color="#b4e1ef" stop-opacity="0.3"/>
      <stop offset="100%" stop-color="#d9eff7" stop-opacity="0.1"/>
    </radialGradient>
    
    <radialGradient id="illuminatingStar" cx="50%" cy="50%" r="40%">
      <stop offset="0%" stop-color="#ffffff" stop-opacity="1"/>
      <stop offset="30%" stop-color="#e6f7ff" stop-opacity="0.9"/>
      <stop offset="100%" stop-color="#45b7d1" stop-opacity="0.5"/>
    </radialGradient>
    
    <linearGradient id="reflectedLight" x1="0%" y1="0%" x2="100%" y2="100%">
      <stop offset="0%" stop-color="#ffffff" stop-opacity="0.6"/>
      <stop offset="50%" stop-color="#6ac5db" stop-opacity="0.4"/>
      <stop offset="100%" stop-color="#45b7d1" stop-opacity="0.2"/>
    </linearGradient>
    
    <filter id="reflectionGlow">
      <feGaussianBlur stdDeviation="2.5" result="coloredBlur"/>
      <feMerge>
        <feMergeNode in="coloredBlur"/>
        <feMergeNode in="SourceGraphic"/>
      </feMerge>
    </filter>
    
    <filter id="starGlow">
      <feGaussianBlur stdDeviation="3" result="coloredBlur"/>
      <feMerge>
        <feMergeNode in="coloredBlur"/>
        <feMergeNode in="SourceGraphic"/>
      </feMerge>
    </filter>
    
    <circle id="dustGrain" r="0.7" fill="#6ac5db" opacity="0.6"/>
  </defs>
  
  <!-- Main reflection nebula -->
  <ellipse cx="200" cy="150" rx="160" ry="100" fill="url(#reflectionGradient)" filter="url(#reflectionGlow)"/>
  
  <!-- Illuminating star -->
  <circle cx="180" cy="130" r="12" fill="url(#illuminatingStar)" filter="url(#starGlow)"/>
  
  <!-- Light reflection patterns -->
  <g opacity="0.7">
    <path d="M 180 130 L 120 100" stroke="url(#reflectedLight)" stroke-width="3"/>
    <path d="M 180 130 L 140 160" stroke="url(#reflectedLight)" stroke-width="2.5"/>
    <path d="M 180 130 L 160 180" stroke="url(#reflectedLight)" stroke-width="2"/>
    <path d="M 180 130 L 220 110" stroke="url(#reflectedLight)" stroke-width="2.8"/>
    <path d="M 180 130 L 240 140" stroke="url(#reflectedLight)" stroke-width="2.3"/>
    <path d="M 180 130 L 260 170" stroke="url(#reflectedLight)" stroke-width="2.1"/>
    <path d="M 180 130 L 200 190" stroke="url(#reflectedLight)" stroke-width="1.8"/>
  </g>
  
  <!-- Dust cloud structure -->
  <g opacity="0.6">
    <ellipse cx="150" cy="120" rx="25" ry="15" fill="#6ac5db" opacity="0.4"/>
    <ellipse cx="220" cy="160" rx="30" ry="20" fill="#6ac5db" opacity="0.5"/>
    <ellipse cx="180" cy="170" rx="20" ry="12" fill="#6ac5db" opacity="0.3"/>
    <ellipse cx="240" cy="130" rx="25" ry="18" fill="#6ac5db" opacity="0.45"/>
  </g>
  
  <!-- Scattering dust grains -->
  <g opacity="0.8">
    <use href="#dustGrain" x="145" y="115"/>
    <use href="#dustGrain" x="155" y="125"/>
    <use href="#dustGrain" x="150" y="120"/>
    <use href="#dustGrain" x="215" y="155"/>
    <use href="#dustGrain" x="225" y="165"/>
    <use href="#dustGrain" x="220" y="160"/>
    <use href="#dustGrain" x="175" y="165"/>
    <use href="#dustGrain" x="185" y="175"/>
    <use href="#dustGrain" x="235" y="125"/>
    <use href="#dustGrain" x="245" y="135"/>
  </g>
  
  <!-- Blue light scattering -->
  <g opacity="0.5">
    <circle cx="160" cy="110" r="3" fill="#45b7d1"/>
    <circle cx="200" cy="140" r="3" fill="#45b7d1"/>
    <circle cx="170" cy="160" r="2.5" fill="#45b7d1"/>
    <circle cx="230" cy="120" r="3" fill="#45b7d1"/>
    <circle cx="210" cy="170" r="2.5" fill="#45b7d1"/>
  </g>
  
  <!-- Reflected starlight beams -->
  <g opacity="0.4">
    <path d="M 180 130 Q 150 120 120 140" stroke="#ffffff" stroke-width="1.5" fill="none"/>
    <path d="M 180 130 Q 200 120 220 140" stroke="#ffffff" stroke-width="1.5" fill="none"/>
    <path d="M 180 130 Q 170 150 160 170" stroke="#ffffff" stroke-width="1.2" fill="none"/>
    <path d="M 180 130 Q 210 150 240 170" stroke="#ffffff" stroke-width="1.2" fill="none"/>
  </g>
  
  <!-- Molecular hydrogen regions -->
  <path d="M 120 120 Q 160 110 200 120 Q 240 130 280 120" 
        stroke="#6ac5db" stroke-width="1" fill="none" opacity="0.3"/>
  <path d="M 130 170 Q 165 160 200 170 Q 235 180 270 170" 
        stroke="#6ac5db" stroke-width="1" fill="none" opacity="0.25"/>
  <path d="M 140 100 Q 170 115 200 100 Q 230 85 260 100" 
        stroke="#6ac5db" stroke-width="1" fill="none" opacity="0.28"/>
  
  <!-- Carbon dust particles -->
  <g opacity="0.6">
    <ellipse cx="140" cy="140" rx="8" ry="5" fill="#8fd3e5" opacity="0.4"/>
    <ellipse cx="220" cy="180" rx="10" ry="6" fill="#8fd3e5" opacity="0.5"/>
    <ellipse cx="250" cy="140" rx="7" ry="4" fill="#8fd3e5" opacity="0.3"/>
    <ellipse cx="160" cy="190" rx="9" ry="5" fill="#8fd3e5" opacity="0.45"/>
  </g>
  
  <!-- Balanced composition indicators -->
  <g opacity="0.4">
    <circle cx="170" cy="120" r="1.5" fill="#ffffff"/>
    <circle cx="210" cy="150" r="1.5" fill="#ffffff"/>
    <circle cx="180" cy="180" r="1.5" fill="#ffffff"/>
    <circle cx="230" cy="140" r="1.5" fill="#ffffff"/>
  </g>
  
  <!-- Nebula boundaries -->
  <ellipse cx="200" cy="150" rx="140" ry="85" fill="none" stroke="#6ac5db" stroke-width="1" opacity="0.3"/>
  <ellipse cx="200" cy="150" rx="110" ry="70" fill="none" stroke="#6ac5db" stroke-width="0.8" opacity="0.2"/>
</svg>