<svg viewBox="0 0 400 300" xmlns="http://www.w3.org/2000/svg">
  <defs>
    <radialGradient id="supernovaGradient" cx="50%" cy="50%" r="80%">
      <stop offset="0%" stop-color="#f06292" stop-opacity="0.9"/>
      <stop offset="20%" stop-color="#f384a5" stop-opacity="0.8"/>
      <stop offset="40%" stop-color="#f6a6b8" stop-opacity="0.6"/>
      <stop offset="70%" stop-color="#f9c8cb" stop-opacity="0.4"/>
      <stop offset="100%" stop-color="#fce4e6" stop-opacity="0.1"/>
    </radialGradient>
    
    <radialGradient id="shockFront" cx="50%" cy="50%" r="50%">
      <stop offset="0%" stop-color="#ff4081" stop-opacity="0.8"/>
      <stop offset="50%" stop-color="#f06292" stop-opacity="0.6"/>
      <stop offset="100%" stop-color="#e91e63" stop-opacity="0.3"/>
    </radialGradient>
    
    <filter id="supernovaGlow">
      <feGaussianBlur stdDeviation="4" result="coloredBlur"/>
      <feMerge>
        <feMergeNode in="coloredBlur"/>
        <feMergeNode in="SourceGraphic"/>
      </feMerge>
    </filter>
    
    <filter id="intenseGlow">
      <feGaussianBlur stdDeviation="6" result="coloredBlur"/>
      <feMerge>
        <feMergeNode in="coloredBlur"/>
        <feMergeNode in="SourceGraphic"/>
      </feMerge>
    </filter>
    
    <circle id="ironParticle" r="1.5" fill="#e91e63" opacity="0.7"/>
    <circle id="siliconParticle" r="1.2" fill="#f06292" opacity="0.6"/>
  </defs>
  
  <!-- Main explosion shell -->
  <ellipse cx="200" cy="150" rx="180" ry="120" fill="url(#supernovaGradient)" filter="url(#supernovaGlow)"/>
  
  <!-- Shock wave fronts -->
  <ellipse cx="200" cy="150" rx="150" ry="100" fill="none" stroke="url(#shockFront)" stroke-width="3" opacity="0.8" filter="url(#intenseGlow)"/>
  <ellipse cx="200" cy="150" rx="120" ry="80" fill="none" stroke="url(#shockFront)" stroke-width="2" opacity="0.6"/>
  <ellipse cx="200" cy="150" rx="90" ry="60" fill="none" stroke="url(#shockFront)" stroke-width="1.5" opacity="0.4"/>
  
  <!-- Chaotic filament structure -->
  <path d="M 80 120 Q 120 80 160 120 Q 200 160 240 120 Q 280 80 320 120" 
        stroke="#f06292" stroke-width="2.5" fill="none" opacity="0.7"/>
  <path d="M 70 180 Q 130 140 190 180 Q 250 220 310 180" 
        stroke="#f06292" stroke-width="2" fill="none" opacity="0.6"/>
  <path d="M 100 70 Q 150 110 200 70 Q 250 30 300 70" 
        stroke="#f06292" stroke-width="2.2" fill="none" opacity="0.65"/>
  <path d="M 90 230 Q 140 190 190 230 Q 240 270 290 230" 
        stroke="#f06292" stroke-width="2.1" fill="none" opacity="0.6"/>
  
  <!-- Heavy element enriched regions -->
  <g opacity="0.8">
    <ellipse cx="150" cy="120" rx="20" ry="15" fill="#e91e63" opacity="0.6"/>
    <ellipse cx="250" cy="180" rx="25" ry="18" fill="#e91e63" opacity="0.7"/>
    <ellipse cx="170" cy="180" rx="18" ry="12" fill="#e91e63" opacity="0.5"/>
    <ellipse cx="230" cy="120" rx="22" ry="16" fill="#e91e63" opacity="0.6"/>
  </g>
  
  <!-- Iron and silicon particles -->
  <g opacity="0.9">
    <use href="#ironParticle" x="140" y="115"/>
    <use href="#ironParticle" x="160" y="125"/>
    <use href="#siliconParticle" x="155" y="120"/>
    <use href="#ironParticle" x="245" y="175"/>
    <use href="#siliconParticle" x="255" y="185"/>
    <use href="#ironParticle" x="250" y="180"/>
    <use href="#siliconParticle" x="165" y="175"/>
    <use href="#ironParticle" x="175" y="185"/>
    <use href="#siliconParticle" x="225" y="115"/>
    <use href="#ironParticle" x="235" y="125"/>
  </g>
  
  <!-- Neutron star or pulsar center -->
  <circle cx="200" cy="150" r="6" fill="#ffffff" opacity="0.9" filter="url(#intenseGlow)"/>
  <circle cx="200" cy="150" r="3" fill="#ff4081" opacity="1"/>
  
  <!-- Pulsar beams -->
  <path d="M 200 150 L 150 100" stroke="#ffffff" stroke-width="2" opacity="0.6"/>
  <path d="M 200 150 L 250 200" stroke="#ffffff" stroke-width="2" opacity="0.6"/>
  <path d="M 200 150 L 250 100" stroke="#ffffff" stroke-width="2" opacity="0.4"/>
  <path d="M 200 150 L 150 200" stroke="#ffffff" stroke-width="2" opacity="0.4"/>
  
  <!-- Turbulent magnetic field lines -->
  <path d="M 120 100 Q 180 120 240 100 Q 300 120 360 100" 
        stroke="#f384a5" stroke-width="1" fill="none" opacity="0.3"/>
  <path d="M 40 200 Q 100 180 160 200 Q 220 220 280 200" 
        stroke="#f384a5" stroke-width="1" fill="none" opacity="0.3"/>
  <path d="M 60 150 Q 120 130 180 150 Q 240 170 300 150" 
        stroke="#f384a5" stroke-width="1" fill="none" opacity="0.25"/>
  
  <!-- Explosive debris -->
  <g opacity="0.5">
    <circle cx="100" cy="80" r="1" fill="#ffffff"/>
    <circle cx="300" cy="220" r="1" fill="#ffffff"/>
    <circle cx="80" cy="220" r="1" fill="#ffffff"/>
    <circle cx="320" cy="80" r="1" fill="#ffffff"/>
    <circle cx="120" cy="200" r="1" fill="#ffffff"/>
    <circle cx="280" cy="100" r="1" fill="#ffffff"/>
  </g>
</svg>